#format: frame checksums
#version: 1
#hash: MD5
#tb 0: 1/30
#stream#, dts,        pts, duration,     size, hash
0,          0,          0,        1,    38016, 83c78b5db579710f61f9354d5c51e8c8
0,          1,          1,        1,    38016, 8d089d226f52d6cdaffdb3fcc080b75b
0,          2,          2,        1,    38016, acaae81ca812145e85e0be83bdf54226
0,          3,          3,        1,    38016, e94651d798b6bf5f09a9bba10cacaf7a
0,          4,          4,        1,    38016, 60c2607913e528d501962bf407341731
0,          5,          5,        1,    38016, e683f2bf28b31e36db88087bd03b6917
0,          6,          6,        1,    38016, 0c2923785051bc9b90c2447a85527764
0,          7,          7,        1,    38016, 1bc97b6b2e4ca36b149c3768495747ac
0,          8,          8,        1,    38016, 0586d948ed3fd479c6dd08055973bcb4
0,          9,          9,        1,    38016, c9a1198e1680487c77a2d1631695aeec
0,         10,         10,        1,    38016, 547d8ffce9c085231c74717a9b815625
0,         11,         11,        1,    38016, d31c02a5591eb7bd8e73703252e1a1ab
0,         12,         12,        1,    38016, 23bafc8e22b2ed7e8c5e52369095cd30
0,         13,         13,        1,    38016, 9725d52d7810a19b20dcc9bb0fa36abd
0,         14,         14,        1,    38016, 7aefaabdcd2595939fd05078d01b484b
0,         15,         15,        1,    38016, 828e758d6f0b29b2693b2dc6b09249a6
0,         16,         16,        1,    38016, 53f09380dde1420ba270b74d8819537c
0,         17,         17,        1,    38016, 09791a7db3bc28258350cfdc95d8f224
0,         18,         18,        1,    38016, 2050271dc4ba3f3e427cf8088c96e28d
0,         19,         19,        1,    38016, 4e69d3f7cea45844b740368fcd4dd815
0,         20,         20,        1,    38016, 4ed07697e239b7f12ee6a97ad09c08fb
0,         21,         21,        1,    38016, 1437c129bfbda63ca1d39a94ee91b097
0,         22,         22,        1,    38016, 4fc951bf45e164b711591155a59c73fa
0,         23,         23,        1,    38016, 97d1007e27b4b9072751e87e8d1f1415
0,         24,         24,        1,    38016, 18c809835dcc3d30c93ae1be569dcd24
0,         25,         25,        1,    38016, de0fd0035a542791c4dda5735657efc5
0,         26,         26,        1,    38016, 27a70ff95d0cfa10f54652c9fb8a9db2
0,         27,         27,        1,    38016, 2285b9324ec91099626191f769962e44
0,         28,         28,        1,    38016, 56794d911b02190212bca92f88ad60c6
